<mxfile host="app.diagrams.net" modified="2023-12-18T08:21:54.933Z" agent="Mozilla/5.0 (Windows NT 10.0; Win64; x64; rv:109.0) Gecko/20100101 Firefox/113.0" etag="0fqLtSwoPbCHUmKEgsJ3" version="22.1.11" type="device">
  <diagram name="Page-1" id="wIMu5UPAckBT70uzS9Y1">
    <mxGraphModel dx="1434" dy="739" grid="1" gridSize="10" guides="1" tooltips="1" connect="1" arrows="1" fold="1" page="1" pageScale="1" pageWidth="827" pageHeight="1169" math="0" shadow="0">
      <root>
        <mxCell id="0" />
        <mxCell id="1" parent="0" />
        <mxCell id="7t5c19qwNGUwCAJm3_xA-1" value="Character" style="swimlane;fontStyle=0;childLayout=stackLayout;horizontal=1;startSize=30;horizontalStack=0;resizeParent=1;resizeParentMax=0;resizeLast=0;collapsible=1;marginBottom=0;whiteSpace=wrap;html=1;" parent="1" vertex="1">
          <mxGeometry x="430" y="230" width="160" height="367" as="geometry" />
        </mxCell>
        <mxCell id="7t5c19qwNGUwCAJm3_xA-2" value="&lt;i&gt;ATTRIBUTS&lt;/i&gt;" style="text;strokeColor=none;fillColor=none;align=left;verticalAlign=middle;spacingLeft=4;spacingRight=4;overflow=hidden;points=[[0,0.5],[1,0.5]];portConstraint=eastwest;rotatable=0;whiteSpace=wrap;html=1;fontStyle=1" parent="7t5c19qwNGUwCAJm3_xA-1" vertex="1">
          <mxGeometry y="30" width="160" height="20" as="geometry" />
        </mxCell>
        <mxCell id="7t5c19qwNGUwCAJm3_xA-3" value="- x : integer" style="text;strokeColor=none;fillColor=none;align=left;verticalAlign=middle;spacingLeft=4;spacingRight=4;overflow=hidden;points=[[0,0.5],[1,0.5]];portConstraint=eastwest;rotatable=0;whiteSpace=wrap;html=1;" parent="7t5c19qwNGUwCAJm3_xA-1" vertex="1">
          <mxGeometry y="50" width="160" height="20" as="geometry" />
        </mxCell>
        <mxCell id="7t5c19qwNGUwCAJm3_xA-4" value="- y : integer" style="text;strokeColor=none;fillColor=none;align=left;verticalAlign=middle;spacingLeft=4;spacingRight=4;overflow=hidden;points=[[0,0.5],[1,0.5]];portConstraint=eastwest;rotatable=0;whiteSpace=wrap;html=1;" parent="7t5c19qwNGUwCAJm3_xA-1" vertex="1">
          <mxGeometry y="70" width="160" height="20" as="geometry" />
        </mxCell>
        <mxCell id="7t5c19qwNGUwCAJm3_xA-5" value="- orientation : string" style="text;strokeColor=none;fillColor=none;align=left;verticalAlign=middle;spacingLeft=4;spacingRight=4;overflow=hidden;points=[[0,0.5],[1,0.5]];portConstraint=eastwest;rotatable=0;whiteSpace=wrap;html=1;" parent="7t5c19qwNGUwCAJm3_xA-1" vertex="1">
          <mxGeometry y="90" width="160" height="20" as="geometry" />
        </mxCell>
        <mxCell id="ohKKbzVVmT6ha2ggcL-i-1" value="- caseSize: int" style="text;strokeColor=none;fillColor=none;align=left;verticalAlign=middle;spacingLeft=4;spacingRight=4;overflow=hidden;points=[[0,0.5],[1,0.5]];portConstraint=eastwest;rotatable=0;whiteSpace=wrap;html=1;" parent="7t5c19qwNGUwCAJm3_xA-1" vertex="1">
          <mxGeometry y="110" width="160" height="20" as="geometry" />
        </mxCell>
        <mxCell id="ohKKbzVVmT6ha2ggcL-i-2" value="- arrivalCordinate: int tab" style="text;strokeColor=none;fillColor=none;align=left;verticalAlign=middle;spacingLeft=4;spacingRight=4;overflow=hidden;points=[[0,0.5],[1,0.5]];portConstraint=eastwest;rotatable=0;whiteSpace=wrap;html=1;" parent="7t5c19qwNGUwCAJm3_xA-1" vertex="1">
          <mxGeometry y="130" width="160" height="20" as="geometry" />
        </mxCell>
        <mxCell id="dOTBtQcYSs3yzN7LviuD-57" value="" style="text;strokeColor=none;fillColor=none;align=left;verticalAlign=middle;spacingTop=-1;spacingLeft=4;spacingRight=4;rotatable=0;labelPosition=right;points=[];portConstraint=eastwest;" parent="7t5c19qwNGUwCAJm3_xA-1" vertex="1">
          <mxGeometry y="150" width="160" height="14" as="geometry" />
        </mxCell>
        <mxCell id="7t5c19qwNGUwCAJm3_xA-6" value="&lt;i&gt;CONSTRUCTEUR&lt;/i&gt;" style="text;strokeColor=none;fillColor=none;align=left;verticalAlign=middle;spacingLeft=4;spacingRight=4;overflow=hidden;points=[[0,0.5],[1,0.5]];portConstraint=eastwest;rotatable=0;whiteSpace=wrap;html=1;fontStyle=1" parent="7t5c19qwNGUwCAJm3_xA-1" vertex="1">
          <mxGeometry y="164" width="160" height="20" as="geometry" />
        </mxCell>
        <mxCell id="7t5c19qwNGUwCAJm3_xA-7" value="&lt;i&gt;+ &lt;/i&gt;Character(x, y, caseSize, arrivalCoordinate)&lt;span style=&quot;white-space: pre;&quot;&gt;&#x9;&lt;/span&gt;" style="text;strokeColor=none;fillColor=none;align=left;verticalAlign=middle;spacingLeft=4;spacingRight=4;overflow=hidden;points=[[0,0.5],[1,0.5]];portConstraint=eastwest;rotatable=0;whiteSpace=wrap;html=1;" parent="7t5c19qwNGUwCAJm3_xA-1" vertex="1">
          <mxGeometry y="184" width="160" height="20" as="geometry" />
        </mxCell>
        <mxCell id="dOTBtQcYSs3yzN7LviuD-58" value="" style="text;strokeColor=none;fillColor=none;align=left;verticalAlign=middle;spacingTop=-1;spacingLeft=4;spacingRight=4;rotatable=0;labelPosition=right;points=[];portConstraint=eastwest;" parent="7t5c19qwNGUwCAJm3_xA-1" vertex="1">
          <mxGeometry y="204" width="160" height="14" as="geometry" />
        </mxCell>
        <mxCell id="7t5c19qwNGUwCAJm3_xA-8" value="&lt;i&gt;ENCAPSULATION&lt;/i&gt;" style="text;strokeColor=none;fillColor=none;align=left;verticalAlign=middle;spacingLeft=4;spacingRight=4;overflow=hidden;points=[[0,0.5],[1,0.5]];portConstraint=eastwest;rotatable=0;whiteSpace=wrap;html=1;fontStyle=1" parent="7t5c19qwNGUwCAJm3_xA-1" vertex="1">
          <mxGeometry y="218" width="160" height="20" as="geometry" />
        </mxCell>
        <mxCell id="7t5c19qwNGUwCAJm3_xA-9" value="+ get&amp;amp;set : x, y, orientation" style="text;strokeColor=none;fillColor=none;align=left;verticalAlign=middle;spacingLeft=4;spacingRight=4;overflow=hidden;points=[[0,0.5],[1,0.5]];portConstraint=eastwest;rotatable=0;whiteSpace=wrap;html=1;" parent="7t5c19qwNGUwCAJm3_xA-1" vertex="1">
          <mxGeometry y="238" width="160" height="20" as="geometry" />
        </mxCell>
        <mxCell id="yO0cbxDvdVJtBcQ6rDHu-19" value="" style="text;strokeColor=none;fillColor=none;align=left;verticalAlign=middle;spacingTop=-1;spacingLeft=4;spacingRight=4;rotatable=0;labelPosition=right;points=[];portConstraint=eastwest;" parent="7t5c19qwNGUwCAJm3_xA-1" vertex="1">
          <mxGeometry y="258" width="160" height="14" as="geometry" />
        </mxCell>
        <mxCell id="yO0cbxDvdVJtBcQ6rDHu-20" value="&lt;i&gt;METHODES SPECIFIQUES&lt;br&gt;&lt;/i&gt;" style="text;strokeColor=none;fillColor=none;align=left;verticalAlign=middle;spacingLeft=4;spacingRight=4;overflow=hidden;points=[[0,0.5],[1,0.5]];portConstraint=eastwest;rotatable=0;whiteSpace=wrap;html=1;fontStyle=1" parent="7t5c19qwNGUwCAJm3_xA-1" vertex="1">
          <mxGeometry y="272" width="160" height="20" as="geometry" />
        </mxCell>
        <mxCell id="yO0cbxDvdVJtBcQ6rDHu-21" value="+ resetParams()" style="text;strokeColor=none;fillColor=none;align=left;verticalAlign=top;spacingLeft=0;spacingRight=0;overflow=hidden;rotatable=0;points=[[0,0.5],[1,0.5]];portConstraint=eastwest;perimeterSpacing=0;fontSize=11;spacingTop=0;spacing=5;spacingBottom=0;html=1;fontFamily=Helvetica;" parent="7t5c19qwNGUwCAJm3_xA-1" vertex="1">
          <mxGeometry y="292" width="160" height="23" as="geometry" />
        </mxCell>
        <mxCell id="uENNwBaK3y2BDfCjXH8p-52" value="+ turn(orientation)" style="text;strokeColor=none;fillColor=none;align=left;verticalAlign=top;spacingLeft=4;spacingRight=4;overflow=hidden;rotatable=0;points=[[0,0.5],[1,0.5]];portConstraint=eastwest;whiteSpace=wrap;html=1;" parent="7t5c19qwNGUwCAJm3_xA-1" vertex="1">
          <mxGeometry y="315" width="160" height="26" as="geometry" />
        </mxCell>
        <mxCell id="uENNwBaK3y2BDfCjXH8p-53" value="+ move(val)" style="text;strokeColor=none;fillColor=none;align=left;verticalAlign=top;spacingLeft=4;spacingRight=4;overflow=hidden;rotatable=0;points=[[0,0.5],[1,0.5]];portConstraint=eastwest;whiteSpace=wrap;html=1;" parent="7t5c19qwNGUwCAJm3_xA-1" vertex="1">
          <mxGeometry y="341" width="160" height="26" as="geometry" />
        </mxCell>
        <mxCell id="7t5c19qwNGUwCAJm3_xA-13" value="Break" style="swimlane;fontStyle=0;childLayout=stackLayout;horizontal=1;startSize=30;horizontalStack=0;resizeParent=1;resizeParentMax=0;resizeLast=0;collapsible=1;marginBottom=0;whiteSpace=wrap;html=1;" parent="1" vertex="1">
          <mxGeometry x="310" y="1063" width="140" height="82" as="geometry" />
        </mxCell>
        <mxCell id="yO0cbxDvdVJtBcQ6rDHu-1" value="+ draw()" style="text;strokeColor=none;fillColor=none;align=left;verticalAlign=top;spacingLeft=4;spacingRight=4;overflow=hidden;rotatable=0;points=[[0,0.5],[1,0.5]];portConstraint=eastwest;whiteSpace=wrap;html=1;" parent="7t5c19qwNGUwCAJm3_xA-13" vertex="1">
          <mxGeometry y="30" width="140" height="26" as="geometry" />
        </mxCell>
        <mxCell id="uENNwBaK3y2BDfCjXH8p-74" value="+ exec()" style="text;strokeColor=none;fillColor=none;align=left;verticalAlign=top;spacingLeft=4;spacingRight=4;overflow=hidden;rotatable=0;points=[[0,0.5],[1,0.5]];portConstraint=eastwest;whiteSpace=wrap;html=1;" parent="7t5c19qwNGUwCAJm3_xA-13" vertex="1">
          <mxGeometry y="56" width="140" height="26" as="geometry" />
        </mxCell>
        <mxCell id="I-sU2I-VhNGSthWqUdIk-1" value="Affectation" style="swimlane;fontStyle=0;childLayout=stackLayout;horizontal=1;startSize=30;horizontalStack=0;resizeParent=1;resizeParentMax=0;resizeLast=0;collapsible=1;marginBottom=0;whiteSpace=wrap;html=1;" parent="1" vertex="1">
          <mxGeometry x="499" y="1063" width="140" height="82" as="geometry" />
        </mxCell>
        <mxCell id="uENNwBaK3y2BDfCjXH8p-51" value="+ draw()" style="text;strokeColor=none;fillColor=none;align=left;verticalAlign=top;spacingLeft=4;spacingRight=4;overflow=hidden;rotatable=0;points=[[0,0.5],[1,0.5]];portConstraint=eastwest;whiteSpace=wrap;html=1;" parent="I-sU2I-VhNGSthWqUdIk-1" vertex="1">
          <mxGeometry y="30" width="140" height="26" as="geometry" />
        </mxCell>
        <mxCell id="uENNwBaK3y2BDfCjXH8p-78" value="+ exec()" style="text;strokeColor=none;fillColor=none;align=left;verticalAlign=top;spacingLeft=4;spacingRight=4;overflow=hidden;rotatable=0;points=[[0,0.5],[1,0.5]];portConstraint=eastwest;whiteSpace=wrap;html=1;" parent="I-sU2I-VhNGSthWqUdIk-1" vertex="1">
          <mxGeometry y="56" width="140" height="26" as="geometry" />
        </mxCell>
        <mxCell id="I-sU2I-VhNGSthWqUdIk-8" value="Condition" style="swimlane;fontStyle=0;childLayout=stackLayout;horizontal=1;startSize=30;horizontalStack=0;resizeParent=1;resizeParentMax=0;resizeLast=0;collapsible=1;marginBottom=0;whiteSpace=wrap;html=1;" parent="1" vertex="1">
          <mxGeometry x="900" y="1060" width="140" height="151" as="geometry" />
        </mxCell>
        <mxCell id="yO0cbxDvdVJtBcQ6rDHu-7" value="+ draw()" style="text;strokeColor=none;fillColor=none;align=left;verticalAlign=top;spacingLeft=4;spacingRight=4;overflow=hidden;rotatable=0;points=[[0,0.5],[1,0.5]];portConstraint=eastwest;whiteSpace=wrap;html=1;" parent="I-sU2I-VhNGSthWqUdIk-8" vertex="1">
          <mxGeometry y="30" width="140" height="26" as="geometry" />
        </mxCell>
        <mxCell id="uENNwBaK3y2BDfCjXH8p-75" value="+ exec()" style="text;strokeColor=none;fillColor=none;align=left;verticalAlign=top;spacingLeft=4;spacingRight=4;overflow=hidden;rotatable=0;points=[[0,0.5],[1,0.5]];portConstraint=eastwest;whiteSpace=wrap;html=1;" parent="I-sU2I-VhNGSthWqUdIk-8" vertex="1">
          <mxGeometry y="56" width="140" height="26" as="geometry" />
        </mxCell>
        <mxCell id="C-W_dXXnNA-3k4iJ4YCx-38" value="+ addNode()" style="text;strokeColor=none;fillColor=none;align=left;verticalAlign=top;spacingLeft=0;spacingRight=0;overflow=hidden;rotatable=0;points=[[0,0.5],[1,0.5]];portConstraint=eastwest;perimeterSpacing=0;fontSize=11;spacingTop=0;spacing=5;spacingBottom=0;html=1;fontFamily=Helvetica;" parent="I-sU2I-VhNGSthWqUdIk-8" vertex="1">
          <mxGeometry y="82" width="140" height="23" as="geometry" />
        </mxCell>
        <mxCell id="C-W_dXXnNA-3k4iJ4YCx-37" value="+ replaceNode()" style="text;strokeColor=none;fillColor=none;align=left;verticalAlign=top;spacingLeft=0;spacingRight=0;overflow=hidden;rotatable=0;points=[[0,0.5],[1,0.5]];portConstraint=eastwest;perimeterSpacing=0;fontSize=11;spacingTop=0;spacing=5;spacingBottom=0;html=1;fontFamily=Helvetica;" parent="I-sU2I-VhNGSthWqUdIk-8" vertex="1">
          <mxGeometry y="105" width="140" height="23" as="geometry" />
        </mxCell>
        <mxCell id="C-W_dXXnNA-3k4iJ4YCx-36" value="+ isComposed()" style="text;strokeColor=none;fillColor=none;align=left;verticalAlign=top;spacingLeft=0;spacingRight=0;overflow=hidden;rotatable=0;points=[[0,0.5],[1,0.5]];portConstraint=eastwest;perimeterSpacing=0;fontSize=11;spacingTop=0;spacing=5;spacingBottom=0;html=1;fontFamily=Helvetica;" parent="I-sU2I-VhNGSthWqUdIk-8" vertex="1">
          <mxGeometry y="128" width="140" height="23" as="geometry" />
        </mxCell>
        <mxCell id="I-sU2I-VhNGSthWqUdIk-9" value="Issue" style="swimlane;fontStyle=0;childLayout=stackLayout;horizontal=1;startSize=30;horizontalStack=0;resizeParent=1;resizeParentMax=0;resizeLast=0;collapsible=1;marginBottom=0;whiteSpace=wrap;html=1;" parent="1" vertex="1">
          <mxGeometry x="1340" y="1060" width="140" height="151" as="geometry" />
        </mxCell>
        <mxCell id="uENNwBaK3y2BDfCjXH8p-54" value="+&amp;nbsp;draw()" style="text;strokeColor=none;fillColor=none;align=left;verticalAlign=top;spacingLeft=4;spacingRight=4;overflow=hidden;rotatable=0;points=[[0,0.5],[1,0.5]];portConstraint=eastwest;whiteSpace=wrap;html=1;" parent="I-sU2I-VhNGSthWqUdIk-9" vertex="1">
          <mxGeometry y="30" width="140" height="26" as="geometry" />
        </mxCell>
        <mxCell id="uENNwBaK3y2BDfCjXH8p-79" value="+ exec()" style="text;strokeColor=none;fillColor=none;align=left;verticalAlign=top;spacingLeft=4;spacingRight=4;overflow=hidden;rotatable=0;points=[[0,0.5],[1,0.5]];portConstraint=eastwest;whiteSpace=wrap;html=1;" parent="I-sU2I-VhNGSthWqUdIk-9" vertex="1">
          <mxGeometry y="56" width="140" height="26" as="geometry" />
        </mxCell>
        <mxCell id="C-W_dXXnNA-3k4iJ4YCx-42" value="+ addNode()" style="text;strokeColor=none;fillColor=none;align=left;verticalAlign=top;spacingLeft=0;spacingRight=0;overflow=hidden;rotatable=0;points=[[0,0.5],[1,0.5]];portConstraint=eastwest;perimeterSpacing=0;fontSize=11;spacingTop=0;spacing=5;spacingBottom=0;html=1;fontFamily=Helvetica;" parent="I-sU2I-VhNGSthWqUdIk-9" vertex="1">
          <mxGeometry y="82" width="140" height="23" as="geometry" />
        </mxCell>
        <mxCell id="C-W_dXXnNA-3k4iJ4YCx-44" value="+ replaceNode()" style="text;strokeColor=none;fillColor=none;align=left;verticalAlign=top;spacingLeft=0;spacingRight=0;overflow=hidden;rotatable=0;points=[[0,0.5],[1,0.5]];portConstraint=eastwest;perimeterSpacing=0;fontSize=11;spacingTop=0;spacing=5;spacingBottom=0;html=1;fontFamily=Helvetica;" parent="I-sU2I-VhNGSthWqUdIk-9" vertex="1">
          <mxGeometry y="105" width="140" height="23" as="geometry" />
        </mxCell>
        <mxCell id="C-W_dXXnNA-3k4iJ4YCx-43" value="+ isComposed()" style="text;strokeColor=none;fillColor=none;align=left;verticalAlign=top;spacingLeft=0;spacingRight=0;overflow=hidden;rotatable=0;points=[[0,0.5],[1,0.5]];portConstraint=eastwest;perimeterSpacing=0;fontSize=11;spacingTop=0;spacing=5;spacingBottom=0;html=1;fontFamily=Helvetica;" parent="I-sU2I-VhNGSthWqUdIk-9" vertex="1">
          <mxGeometry y="128" width="140" height="23" as="geometry" />
        </mxCell>
        <mxCell id="I-sU2I-VhNGSthWqUdIk-11" value="Loop" style="swimlane;fontStyle=0;childLayout=stackLayout;horizontal=1;startSize=30;horizontalStack=0;resizeParent=1;resizeParentMax=0;resizeLast=0;collapsible=1;marginBottom=0;whiteSpace=wrap;html=1;" parent="1" vertex="1">
          <mxGeometry x="710" y="1060" width="140" height="151" as="geometry" />
        </mxCell>
        <mxCell id="C-W_dXXnNA-3k4iJ4YCx-20" value="" style="endArrow=none;dashed=1;html=1;rounded=0;" parent="I-sU2I-VhNGSthWqUdIk-11" edge="1">
          <mxGeometry width="50" height="50" relative="1" as="geometry">
            <mxPoint x="50" as="sourcePoint" />
            <mxPoint x="50" y="-90" as="targetPoint" />
          </mxGeometry>
        </mxCell>
        <mxCell id="yO0cbxDvdVJtBcQ6rDHu-13" value="+ draw()" style="text;strokeColor=none;fillColor=none;align=left;verticalAlign=top;spacingLeft=4;spacingRight=4;overflow=hidden;rotatable=0;points=[[0,0.5],[1,0.5]];portConstraint=eastwest;whiteSpace=wrap;html=1;" parent="I-sU2I-VhNGSthWqUdIk-11" vertex="1">
          <mxGeometry y="30" width="140" height="26" as="geometry" />
        </mxCell>
        <mxCell id="uENNwBaK3y2BDfCjXH8p-76" value="+ exec()" style="text;strokeColor=none;fillColor=none;align=left;verticalAlign=top;spacingLeft=4;spacingRight=4;overflow=hidden;rotatable=0;points=[[0,0.5],[1,0.5]];portConstraint=eastwest;whiteSpace=wrap;html=1;" parent="I-sU2I-VhNGSthWqUdIk-11" vertex="1">
          <mxGeometry y="56" width="140" height="26" as="geometry" />
        </mxCell>
        <mxCell id="C-W_dXXnNA-3k4iJ4YCx-33" value="+ isComposed()" style="text;strokeColor=none;fillColor=none;align=left;verticalAlign=top;spacingLeft=0;spacingRight=0;overflow=hidden;rotatable=0;points=[[0,0.5],[1,0.5]];portConstraint=eastwest;perimeterSpacing=0;fontSize=11;spacingTop=0;spacing=5;spacingBottom=0;html=1;fontFamily=Helvetica;" parent="I-sU2I-VhNGSthWqUdIk-11" vertex="1">
          <mxGeometry y="82" width="140" height="23" as="geometry" />
        </mxCell>
        <mxCell id="C-W_dXXnNA-3k4iJ4YCx-35" value="+ replaceNode()" style="text;strokeColor=none;fillColor=none;align=left;verticalAlign=top;spacingLeft=0;spacingRight=0;overflow=hidden;rotatable=0;points=[[0,0.5],[1,0.5]];portConstraint=eastwest;perimeterSpacing=0;fontSize=11;spacingTop=0;spacing=5;spacingBottom=0;html=1;fontFamily=Helvetica;" parent="I-sU2I-VhNGSthWqUdIk-11" vertex="1">
          <mxGeometry y="105" width="140" height="23" as="geometry" />
        </mxCell>
        <mxCell id="C-W_dXXnNA-3k4iJ4YCx-34" value="+ addNode()" style="text;strokeColor=none;fillColor=none;align=left;verticalAlign=top;spacingLeft=0;spacingRight=0;overflow=hidden;rotatable=0;points=[[0,0.5],[1,0.5]];portConstraint=eastwest;perimeterSpacing=0;fontSize=11;spacingTop=0;spacing=5;spacingBottom=0;html=1;fontFamily=Helvetica;" parent="I-sU2I-VhNGSthWqUdIk-11" vertex="1">
          <mxGeometry y="128" width="140" height="23" as="geometry" />
        </mxCell>
        <mxCell id="I-sU2I-VhNGSthWqUdIk-13" value="Switch" style="swimlane;fontStyle=0;childLayout=stackLayout;horizontal=1;startSize=30;horizontalStack=0;resizeParent=1;resizeParentMax=0;resizeLast=0;collapsible=1;marginBottom=0;whiteSpace=wrap;html=1;" parent="1" vertex="1">
          <mxGeometry x="1100" y="1060" width="180" height="151" as="geometry" />
        </mxCell>
        <mxCell id="uENNwBaK3y2BDfCjXH8p-50" value="+ draw()" style="text;strokeColor=none;fillColor=none;align=left;verticalAlign=top;spacingLeft=4;spacingRight=4;overflow=hidden;rotatable=0;points=[[0,0.5],[1,0.5]];portConstraint=eastwest;whiteSpace=wrap;html=1;" parent="I-sU2I-VhNGSthWqUdIk-13" vertex="1">
          <mxGeometry y="30" width="180" height="26" as="geometry" />
        </mxCell>
        <mxCell id="uENNwBaK3y2BDfCjXH8p-77" value="+ exec()" style="text;strokeColor=none;fillColor=none;align=left;verticalAlign=top;spacingLeft=4;spacingRight=4;overflow=hidden;rotatable=0;points=[[0,0.5],[1,0.5]];portConstraint=eastwest;whiteSpace=wrap;html=1;" parent="I-sU2I-VhNGSthWqUdIk-13" vertex="1">
          <mxGeometry y="56" width="180" height="26" as="geometry" />
        </mxCell>
        <mxCell id="C-W_dXXnNA-3k4iJ4YCx-39" value="+ addNode()" style="text;strokeColor=none;fillColor=none;align=left;verticalAlign=top;spacingLeft=0;spacingRight=0;overflow=hidden;rotatable=0;points=[[0,0.5],[1,0.5]];portConstraint=eastwest;perimeterSpacing=0;fontSize=11;spacingTop=0;spacing=5;spacingBottom=0;html=1;fontFamily=Helvetica;" parent="I-sU2I-VhNGSthWqUdIk-13" vertex="1">
          <mxGeometry y="82" width="180" height="23" as="geometry" />
        </mxCell>
        <mxCell id="C-W_dXXnNA-3k4iJ4YCx-41" value="+ isComposed()" style="text;strokeColor=none;fillColor=none;align=left;verticalAlign=top;spacingLeft=0;spacingRight=0;overflow=hidden;rotatable=0;points=[[0,0.5],[1,0.5]];portConstraint=eastwest;perimeterSpacing=0;fontSize=11;spacingTop=0;spacing=5;spacingBottom=0;html=1;fontFamily=Helvetica;" parent="I-sU2I-VhNGSthWqUdIk-13" vertex="1">
          <mxGeometry y="105" width="180" height="23" as="geometry" />
        </mxCell>
        <mxCell id="C-W_dXXnNA-3k4iJ4YCx-40" value="+ replaceNode()" style="text;strokeColor=none;fillColor=none;align=left;verticalAlign=top;spacingLeft=0;spacingRight=0;overflow=hidden;rotatable=0;points=[[0,0.5],[1,0.5]];portConstraint=eastwest;perimeterSpacing=0;fontSize=11;spacingTop=0;spacing=5;spacingBottom=0;html=1;fontFamily=Helvetica;" parent="I-sU2I-VhNGSthWqUdIk-13" vertex="1">
          <mxGeometry y="128" width="180" height="23" as="geometry" />
        </mxCell>
        <mxCell id="dOTBtQcYSs3yzN7LviuD-4" value="&amp;lt;&amp;lt;abstract&amp;gt;&amp;gt;&lt;br&gt;Node" style="swimlane;fontStyle=1;align=center;verticalAlign=top;childLayout=stackLayout;horizontal=1;startSize=26;horizontalStack=0;resizeParent=1;resizeParentMax=0;resizeLast=0;collapsible=1;marginBottom=0;fillColor=none;strokeColor=#6c8ebf;fontSize=11;spacingTop=-10;spacing=6;spacingLeft=0;spacingBottom=0;spacingRight=0;html=1;fontFamily=Helvetica;swimlaneLine=1;rounded=0;shadow=0;glass=0;" parent="1" vertex="1">
          <mxGeometry x="680" y="120" width="350" height="791" as="geometry">
            <mxRectangle x="395" y="210" width="100" height="30" as="alternateBounds" />
          </mxGeometry>
        </mxCell>
        <mxCell id="dOTBtQcYSs3yzN7LviuD-49" value="&lt;i&gt;ATTRIBUTS&lt;/i&gt;" style="text;strokeColor=none;fillColor=none;align=left;verticalAlign=middle;spacingLeft=4;spacingRight=4;overflow=hidden;points=[[0,0.5],[1,0.5]];portConstraint=eastwest;rotatable=0;whiteSpace=wrap;html=1;fontStyle=1" parent="dOTBtQcYSs3yzN7LviuD-4" vertex="1">
          <mxGeometry y="26" width="350" height="20" as="geometry" />
        </mxCell>
        <mxCell id="dOTBtQcYSs3yzN7LviuD-15" value="- _canvas : canvas" style="text;strokeColor=none;fillColor=none;align=left;verticalAlign=middle;spacingLeft=5;spacingRight=0;overflow=hidden;rotatable=0;points=[[0,0.5],[1,0.5]];portConstraint=eastwest;perimeterSpacing=0;fontSize=11;spacingTop=0;spacing=5;spacingBottom=0;html=1;fontFamily=Helvetica;" parent="dOTBtQcYSs3yzN7LviuD-4" vertex="1">
          <mxGeometry y="46" width="350" height="23" as="geometry" />
        </mxCell>
        <mxCell id="C-W_dXXnNA-3k4iJ4YCx-6" value="- _id : string" style="text;strokeColor=none;fillColor=none;align=left;verticalAlign=middle;spacingLeft=5;spacingRight=0;overflow=hidden;rotatable=0;points=[[0,0.5],[1,0.5]];portConstraint=eastwest;perimeterSpacing=0;fontSize=11;spacingTop=0;spacing=5;spacingBottom=0;html=1;fontFamily=Helvetica;" parent="dOTBtQcYSs3yzN7LviuD-4" vertex="1">
          <mxGeometry y="69" width="350" height="23" as="geometry" />
        </mxCell>
        <mxCell id="dOTBtQcYSs3yzN7LviuD-6" value="- _x : int" style="text;strokeColor=none;fillColor=none;align=left;verticalAlign=middle;spacingLeft=5;spacingRight=0;overflow=hidden;rotatable=0;points=[[0,0.5],[1,0.5]];portConstraint=eastwest;perimeterSpacing=0;fontSize=11;spacingTop=0;spacing=5;spacingBottom=0;html=1;horizontal=1;fontStyle=0;rounded=0;fontFamily=Helvetica;" parent="dOTBtQcYSs3yzN7LviuD-4" vertex="1">
          <mxGeometry y="92" width="350" height="23" as="geometry" />
        </mxCell>
        <mxCell id="dOTBtQcYSs3yzN7LviuD-7" value="- _y : int" style="text;strokeColor=none;fillColor=none;align=left;verticalAlign=middle;spacingLeft=5;spacingRight=0;overflow=hidden;rotatable=0;points=[[0,0.5],[1,0.5]];portConstraint=eastwest;perimeterSpacing=0;fontSize=11;spacingTop=0;spacing=5;spacingBottom=0;html=1;fontFamily=Helvetica;" parent="dOTBtQcYSs3yzN7LviuD-4" vertex="1">
          <mxGeometry y="115" width="350" height="23" as="geometry" />
        </mxCell>
        <mxCell id="dOTBtQcYSs3yzN7LviuD-8" value="- _txt : string tab" style="text;strokeColor=none;fillColor=none;align=left;verticalAlign=middle;spacingLeft=5;spacingRight=0;overflow=hidden;rotatable=0;points=[[0,0.5],[1,0.5]];portConstraint=eastwest;perimeterSpacing=0;fontSize=11;spacingTop=0;spacing=5;spacingBottom=0;html=1;fontFamily=Helvetica;" parent="dOTBtQcYSs3yzN7LviuD-4" vertex="1">
          <mxGeometry y="138" width="350" height="23" as="geometry" />
        </mxCell>
        <mxCell id="dOTBtQcYSs3yzN7LviuD-9" value="- _type : string" style="text;strokeColor=none;fillColor=none;align=left;verticalAlign=middle;spacingLeft=5;spacingRight=0;overflow=hidden;rotatable=0;points=[[0,0.5],[1,0.5]];portConstraint=eastwest;perimeterSpacing=0;fontSize=11;spacingTop=0;spacing=5;spacingBottom=0;html=1;fontFamily=Helvetica;" parent="dOTBtQcYSs3yzN7LviuD-4" vertex="1">
          <mxGeometry y="161" width="350" height="23" as="geometry" />
        </mxCell>
        <mxCell id="dOTBtQcYSs3yzN7LviuD-10" value="- _height : int" style="text;strokeColor=none;fillColor=none;align=left;verticalAlign=middle;spacingLeft=5;spacingRight=0;overflow=hidden;rotatable=0;points=[[0,0.5],[1,0.5]];portConstraint=eastwest;perimeterSpacing=0;fontSize=11;spacingTop=0;spacing=5;spacingBottom=0;html=1;fontFamily=Helvetica;" parent="dOTBtQcYSs3yzN7LviuD-4" vertex="1">
          <mxGeometry y="184" width="350" height="23" as="geometry" />
        </mxCell>
        <mxCell id="dOTBtQcYSs3yzN7LviuD-39" value="- _width : int" style="text;strokeColor=none;fillColor=none;align=left;verticalAlign=middle;spacingLeft=5;spacingRight=0;overflow=hidden;rotatable=0;points=[[0,0.5],[1,0.5]];portConstraint=eastwest;perimeterSpacing=0;fontSize=11;spacingTop=0;spacing=5;spacingBottom=0;html=1;fontFamily=Helvetica;" parent="dOTBtQcYSs3yzN7LviuD-4" vertex="1">
          <mxGeometry y="207" width="350" height="23" as="geometry" />
        </mxCell>
        <mxCell id="dOTBtQcYSs3yzN7LviuD-11" value="- _size : int tab" style="text;strokeColor=none;fillColor=none;align=left;verticalAlign=middle;spacingLeft=5;spacingRight=0;overflow=hidden;rotatable=0;points=[[0,0.5],[1,0.5]];portConstraint=eastwest;perimeterSpacing=0;fontSize=11;spacingTop=0;spacing=5;spacingBottom=0;html=1;fontFamily=Helvetica;" parent="dOTBtQcYSs3yzN7LviuD-4" vertex="1">
          <mxGeometry y="230" width="350" height="23" as="geometry" />
        </mxCell>
        <mxCell id="dOTBtQcYSs3yzN7LviuD-40" value="- _val : int" style="text;strokeColor=none;fillColor=none;align=left;verticalAlign=middle;spacingLeft=5;spacingRight=0;overflow=hidden;rotatable=0;points=[[0,0.5],[1,0.5]];portConstraint=eastwest;perimeterSpacing=0;fontSize=11;spacingTop=0;spacing=5;spacingBottom=0;html=1;fontFamily=Helvetica;" parent="dOTBtQcYSs3yzN7LviuD-4" vertex="1">
          <mxGeometry y="253" width="350" height="23" as="geometry" />
        </mxCell>
        <mxCell id="dOTBtQcYSs3yzN7LviuD-46" value="- _funcToExec : parameter" style="text;strokeColor=none;fillColor=none;align=left;verticalAlign=middle;spacingLeft=5;spacingRight=0;overflow=hidden;rotatable=0;points=[[0,0.5],[1,0.5]];portConstraint=eastwest;perimeterSpacing=0;fontSize=11;spacingTop=0;spacing=5;spacingBottom=0;html=1;fontFamily=Helvetica;" parent="dOTBtQcYSs3yzN7LviuD-4" vertex="1">
          <mxGeometry y="276" width="350" height="23" as="geometry" />
        </mxCell>
        <mxCell id="dOTBtQcYSs3yzN7LviuD-14" value="- _output : int tab" style="text;strokeColor=none;fillColor=none;align=left;verticalAlign=middle;spacingLeft=5;spacingRight=0;overflow=hidden;rotatable=0;points=[[0,0.5],[1,0.5]];portConstraint=eastwest;perimeterSpacing=0;fontSize=11;spacingTop=0;spacing=5;spacingBottom=0;html=1;fontFamily=Helvetica;" parent="dOTBtQcYSs3yzN7LviuD-4" vertex="1">
          <mxGeometry y="299" width="350" height="23" as="geometry" />
        </mxCell>
        <mxCell id="dOTBtQcYSs3yzN7LviuD-45" value="- _caseSize : parameter" style="text;strokeColor=none;fillColor=none;align=left;verticalAlign=middle;spacingLeft=5;spacingRight=0;overflow=hidden;rotatable=0;points=[[0,0.5],[1,0.5]];portConstraint=eastwest;perimeterSpacing=0;fontSize=11;spacingTop=0;spacing=5;spacingBottom=0;html=1;fontFamily=Helvetica;" parent="dOTBtQcYSs3yzN7LviuD-4" vertex="1">
          <mxGeometry y="322" width="350" height="23" as="geometry" />
        </mxCell>
        <mxCell id="C-W_dXXnNA-3k4iJ4YCx-5" value="- _myNodes : ArrayList" style="text;strokeColor=none;fillColor=none;align=left;verticalAlign=middle;spacingLeft=5;spacingRight=0;overflow=hidden;rotatable=0;points=[[0,0.5],[1,0.5]];portConstraint=eastwest;perimeterSpacing=0;fontSize=11;spacingTop=0;spacing=5;spacingBottom=0;html=1;fontFamily=Helvetica;" parent="dOTBtQcYSs3yzN7LviuD-4" vertex="1">
          <mxGeometry y="345" width="350" height="23" as="geometry" />
        </mxCell>
        <mxCell id="dOTBtQcYSs3yzN7LviuD-16" value="- _context : string" style="text;strokeColor=none;fillColor=none;align=left;verticalAlign=middle;spacingLeft=5;spacingRight=0;overflow=hidden;rotatable=0;points=[[0,0.5],[1,0.5]];portConstraint=eastwest;perimeterSpacing=0;fontSize=11;spacingTop=0;spacing=5;spacingBottom=0;html=1;fontFamily=Helvetica;" parent="dOTBtQcYSs3yzN7LviuD-4" vertex="1">
          <mxGeometry y="368" width="350" height="23" as="geometry" />
        </mxCell>
        <mxCell id="dOTBtQcYSs3yzN7LviuD-41" value="- _map : htmlElement" style="text;strokeColor=none;fillColor=none;align=left;verticalAlign=middle;spacingLeft=5;spacingRight=0;overflow=hidden;rotatable=0;points=[[0,0.5],[1,0.5]];portConstraint=eastwest;perimeterSpacing=0;fontSize=11;spacingTop=0;spacing=5;spacingBottom=0;html=1;fontFamily=Helvetica;" parent="dOTBtQcYSs3yzN7LviuD-4" vertex="1">
          <mxGeometry y="391" width="350" height="23" as="geometry" />
        </mxCell>
        <mxCell id="dOTBtQcYSs3yzN7LviuD-43" value="- _allFunc : dictionary" style="text;strokeColor=none;fillColor=none;align=left;verticalAlign=middle;spacingLeft=5;spacingRight=0;overflow=hidden;rotatable=0;points=[[0,0.5],[1,0.5]];portConstraint=eastwest;perimeterSpacing=0;fontSize=11;spacingTop=0;spacing=5;spacingBottom=0;html=1;fontFamily=Helvetica;" parent="dOTBtQcYSs3yzN7LviuD-4" vertex="1">
          <mxGeometry y="414" width="350" height="23" as="geometry" />
        </mxCell>
        <mxCell id="PfEzJs5-nPjOPZUw7gWI-2" value="- _character : Character" style="text;strokeColor=none;fillColor=none;align=left;verticalAlign=middle;spacingLeft=5;spacingRight=0;overflow=hidden;rotatable=0;points=[[0,0.5],[1,0.5]];portConstraint=eastwest;perimeterSpacing=0;fontSize=11;spacingTop=0;spacing=5;spacingBottom=0;html=1;fontFamily=Helvetica;" vertex="1" parent="dOTBtQcYSs3yzN7LviuD-4">
          <mxGeometry y="437" width="350" height="23" as="geometry" />
        </mxCell>
        <mxCell id="dOTBtQcYSs3yzN7LviuD-50" value="&lt;i&gt;CONSTRUCTEUR&lt;/i&gt;" style="text;strokeColor=none;fillColor=none;align=left;verticalAlign=middle;spacingLeft=4;spacingRight=4;overflow=hidden;points=[[0,0.5],[1,0.5]];portConstraint=eastwest;rotatable=0;whiteSpace=wrap;html=1;fontStyle=1" parent="dOTBtQcYSs3yzN7LviuD-4" vertex="1">
          <mxGeometry y="460" width="350" height="20" as="geometry" />
        </mxCell>
        <mxCell id="dOTBtQcYSs3yzN7LviuD-20" value="+ Node(canvas, node, character)" style="text;strokeColor=none;fillColor=none;align=left;verticalAlign=top;spacingLeft=0;spacingRight=0;overflow=hidden;rotatable=0;points=[[0,0.5],[1,0.5]];portConstraint=eastwest;perimeterSpacing=0;fontSize=11;spacingTop=0;spacing=5;spacingBottom=0;html=1;fontFamily=Helvetica;" parent="dOTBtQcYSs3yzN7LviuD-4" vertex="1">
          <mxGeometry y="480" width="350" height="23" as="geometry" />
        </mxCell>
        <mxCell id="dOTBtQcYSs3yzN7LviuD-54" value="" style="text;strokeColor=none;fillColor=none;align=left;verticalAlign=middle;spacingTop=-1;spacingLeft=4;spacingRight=4;rotatable=0;labelPosition=right;points=[];portConstraint=eastwest;" parent="dOTBtQcYSs3yzN7LviuD-4" vertex="1">
          <mxGeometry y="503" width="350" height="14" as="geometry" />
        </mxCell>
        <mxCell id="dOTBtQcYSs3yzN7LviuD-51" value="&lt;i&gt;ENCAPSULATION&lt;/i&gt;" style="text;strokeColor=none;fillColor=none;align=left;verticalAlign=middle;spacingLeft=4;spacingRight=4;overflow=hidden;points=[[0,0.5],[1,0.5]];portConstraint=eastwest;rotatable=0;whiteSpace=wrap;html=1;fontStyle=1" parent="dOTBtQcYSs3yzN7LviuD-4" vertex="1">
          <mxGeometry y="517" width="350" height="20" as="geometry" />
        </mxCell>
        <mxCell id="dOTBtQcYSs3yzN7LviuD-22" value="get&amp;amp;set(id, x, y, txt, funcToExec, valForFunc, caseSize, type, height, &lt;br&gt;width, size, clickArea, allCoord, output, symbolParam)" style="text;strokeColor=none;fillColor=none;align=left;verticalAlign=top;spacingLeft=0;spacingRight=0;overflow=hidden;rotatable=0;points=[[0,0.5],[1,0.5]];portConstraint=eastwest;perimeterSpacing=0;fontSize=11;spacingTop=0;spacing=5;spacingBottom=0;html=1;fontFamily=Helvetica;" parent="dOTBtQcYSs3yzN7LviuD-4" vertex="1">
          <mxGeometry y="537" width="350" height="50" as="geometry" />
        </mxCell>
        <mxCell id="dOTBtQcYSs3yzN7LviuD-52" value="&lt;i&gt;METHODES SPECIFIQUES&lt;br&gt;&lt;/i&gt;" style="text;strokeColor=none;fillColor=none;align=left;verticalAlign=middle;spacingLeft=4;spacingRight=4;overflow=hidden;points=[[0,0.5],[1,0.5]];portConstraint=eastwest;rotatable=0;whiteSpace=wrap;html=1;fontStyle=1" parent="dOTBtQcYSs3yzN7LviuD-4" vertex="1">
          <mxGeometry y="587" width="350" height="20" as="geometry" />
        </mxCell>
        <mxCell id="dOTBtQcYSs3yzN7LviuD-31" value="+ drawLine(x1,y1,x2,y2)" style="text;strokeColor=none;fillColor=none;align=left;verticalAlign=top;spacingLeft=0;spacingRight=0;overflow=hidden;rotatable=0;points=[[0,0.5],[1,0.5]];portConstraint=eastwest;perimeterSpacing=0;fontSize=11;spacingTop=0;spacing=5;spacingBottom=0;html=1;fontFamily=Helvetica;" parent="dOTBtQcYSs3yzN7LviuD-4" vertex="1">
          <mxGeometry y="607" width="350" height="23" as="geometry" />
        </mxCell>
        <mxCell id="dOTBtQcYSs3yzN7LviuD-32" value="+ drawCorner(height,leftCornerX,rightCornerX,y)" style="text;strokeColor=none;fillColor=none;align=left;verticalAlign=top;spacingLeft=0;spacingRight=0;overflow=hidden;rotatable=0;points=[[0,0.5],[1,0.5]];portConstraint=eastwest;perimeterSpacing=0;fontSize=11;spacingTop=0;spacing=5;spacingBottom=0;html=1;fontFamily=Helvetica;" parent="dOTBtQcYSs3yzN7LviuD-4" vertex="1">
          <mxGeometry y="630" width="350" height="23" as="geometry" />
        </mxCell>
        <mxCell id="dOTBtQcYSs3yzN7LviuD-33" value="+ drawBrackets(height,leftBracketX,rightBracketX,y)" style="text;strokeColor=none;fillColor=none;align=left;verticalAlign=top;spacingLeft=0;spacingRight=0;overflow=hidden;rotatable=0;points=[[0,0.5],[1,0.5]];portConstraint=eastwest;perimeterSpacing=0;fontSize=11;spacingTop=0;spacing=5;spacingBottom=0;html=1;fontFamily=Helvetica;" parent="dOTBtQcYSs3yzN7LviuD-4" vertex="1">
          <mxGeometry y="653" width="350" height="23" as="geometry" />
        </mxCell>
        <mxCell id="dOTBtQcYSs3yzN7LviuD-34" value="+ draw()" style="text;strokeColor=none;fillColor=none;align=left;verticalAlign=top;spacingLeft=0;spacingRight=0;overflow=hidden;rotatable=0;points=[[0,0.5],[1,0.5]];portConstraint=eastwest;perimeterSpacing=0;fontSize=11;spacingTop=0;spacing=5;spacingBottom=0;html=1;fontFamily=Helvetica;" parent="dOTBtQcYSs3yzN7LviuD-4" vertex="1">
          <mxGeometry y="676" width="350" height="23" as="geometry" />
        </mxCell>
        <mxCell id="dOTBtQcYSs3yzN7LviuD-59" value="+ exec()" style="text;strokeColor=none;fillColor=none;align=left;verticalAlign=top;spacingLeft=0;spacingRight=0;overflow=hidden;rotatable=0;points=[[0,0.5],[1,0.5]];portConstraint=eastwest;perimeterSpacing=0;fontSize=11;spacingTop=0;spacing=5;spacingBottom=0;html=1;fontFamily=Helvetica;" parent="dOTBtQcYSs3yzN7LviuD-4" vertex="1">
          <mxGeometry y="699" width="350" height="23" as="geometry" />
        </mxCell>
        <mxCell id="C-W_dXXnNA-3k4iJ4YCx-7" value="+ isComposed()" style="text;strokeColor=none;fillColor=none;align=left;verticalAlign=top;spacingLeft=0;spacingRight=0;overflow=hidden;rotatable=0;points=[[0,0.5],[1,0.5]];portConstraint=eastwest;perimeterSpacing=0;fontSize=11;spacingTop=0;spacing=5;spacingBottom=0;html=1;fontFamily=Helvetica;" parent="dOTBtQcYSs3yzN7LviuD-4" vertex="1">
          <mxGeometry y="722" width="350" height="23" as="geometry" />
        </mxCell>
        <mxCell id="C-W_dXXnNA-3k4iJ4YCx-8" value="+ addNode()" style="text;strokeColor=none;fillColor=none;align=left;verticalAlign=top;spacingLeft=0;spacingRight=0;overflow=hidden;rotatable=0;points=[[0,0.5],[1,0.5]];portConstraint=eastwest;perimeterSpacing=0;fontSize=11;spacingTop=0;spacing=5;spacingBottom=0;html=1;fontFamily=Helvetica;" parent="dOTBtQcYSs3yzN7LviuD-4" vertex="1">
          <mxGeometry y="745" width="350" height="23" as="geometry" />
        </mxCell>
        <mxCell id="C-W_dXXnNA-3k4iJ4YCx-9" value="+ replaceNode()" style="text;strokeColor=none;fillColor=none;align=left;verticalAlign=top;spacingLeft=0;spacingRight=0;overflow=hidden;rotatable=0;points=[[0,0.5],[1,0.5]];portConstraint=eastwest;perimeterSpacing=0;fontSize=11;spacingTop=0;spacing=5;spacingBottom=0;html=1;fontFamily=Helvetica;" parent="dOTBtQcYSs3yzN7LviuD-4" vertex="1">
          <mxGeometry y="768" width="350" height="23" as="geometry" />
        </mxCell>
        <mxCell id="C-W_dXXnNA-3k4iJ4YCx-11" value="" style="endArrow=open;html=1;endSize=12;startArrow=diamond;startSize=14;startFill=0;edgeStyle=orthogonalEdgeStyle;align=left;verticalAlign=bottom;rounded=0;exitX=0.5;exitY=0;exitDx=0;exitDy=0;" parent="1" source="I-sU2I-VhNGSthWqUdIk-9" edge="1">
          <mxGeometry x="-1" y="3" relative="1" as="geometry">
            <mxPoint x="1350" y="980" as="sourcePoint" />
            <mxPoint x="1030" y="250" as="targetPoint" />
            <Array as="points">
              <mxPoint x="1410" y="250" />
              <mxPoint x="1029" y="250" />
            </Array>
          </mxGeometry>
        </mxCell>
        <mxCell id="C-W_dXXnNA-3k4iJ4YCx-25" value="myNodes" style="edgeLabel;html=1;align=center;verticalAlign=middle;resizable=0;points=[];" parent="C-W_dXXnNA-3k4iJ4YCx-11" connectable="0" vertex="1">
          <mxGeometry x="0.7053" y="-1" relative="1" as="geometry">
            <mxPoint as="offset" />
          </mxGeometry>
        </mxCell>
        <mxCell id="C-W_dXXnNA-3k4iJ4YCx-13" value="" style="endArrow=open;html=1;endSize=12;startArrow=diamond;startSize=14;startFill=0;edgeStyle=orthogonalEdgeStyle;align=left;verticalAlign=bottom;rounded=0;exitX=0.5;exitY=0;exitDx=0;exitDy=0;" parent="1" source="I-sU2I-VhNGSthWqUdIk-13" edge="1">
          <mxGeometry x="-1" y="3" relative="1" as="geometry">
            <mxPoint x="1420" y="1070" as="sourcePoint" />
            <mxPoint x="1030" y="280" as="targetPoint" />
            <Array as="points">
              <mxPoint x="1190" y="280" />
            </Array>
          </mxGeometry>
        </mxCell>
        <mxCell id="C-W_dXXnNA-3k4iJ4YCx-26" value="myNodes" style="edgeLabel;html=1;align=center;verticalAlign=middle;resizable=0;points=[];" parent="C-W_dXXnNA-3k4iJ4YCx-13" connectable="0" vertex="1">
          <mxGeometry x="0.8232" y="-2" relative="1" as="geometry">
            <mxPoint as="offset" />
          </mxGeometry>
        </mxCell>
        <mxCell id="C-W_dXXnNA-3k4iJ4YCx-14" value="" style="endArrow=open;html=1;endSize=12;startArrow=diamond;startSize=14;startFill=0;edgeStyle=orthogonalEdgeStyle;align=left;verticalAlign=bottom;rounded=0;" parent="1" edge="1">
          <mxGeometry x="-1" y="3" relative="1" as="geometry">
            <mxPoint x="1010" y="1060" as="sourcePoint" />
            <mxPoint x="1030" y="310" as="targetPoint" />
            <Array as="points">
              <mxPoint x="1010" y="1030" />
              <mxPoint x="1131" y="1030" />
              <mxPoint x="1131" y="310" />
              <mxPoint x="1030" y="310" />
            </Array>
          </mxGeometry>
        </mxCell>
        <mxCell id="C-W_dXXnNA-3k4iJ4YCx-27" value="myNode" style="edgeLabel;html=1;align=center;verticalAlign=middle;resizable=0;points=[];" parent="C-W_dXXnNA-3k4iJ4YCx-14" connectable="0" vertex="1">
          <mxGeometry x="0.8924" y="-3" relative="1" as="geometry">
            <mxPoint as="offset" />
          </mxGeometry>
        </mxCell>
        <mxCell id="C-W_dXXnNA-3k4iJ4YCx-16" value="" style="endArrow=open;html=1;endSize=12;startArrow=diamond;startSize=14;startFill=0;edgeStyle=orthogonalEdgeStyle;align=left;verticalAlign=bottom;rounded=0;exitX=0.844;exitY=-0.01;exitDx=0;exitDy=0;exitPerimeter=0;" parent="1" source="I-sU2I-VhNGSthWqUdIk-11" edge="1">
          <mxGeometry x="-1" y="3" relative="1" as="geometry">
            <mxPoint x="740" y="940" as="sourcePoint" />
            <mxPoint x="1028" y="350" as="targetPoint" />
            <Array as="points">
              <mxPoint x="828" y="1020" />
              <mxPoint x="1110" y="1020" />
              <mxPoint x="1110" y="350" />
              <mxPoint x="1028" y="350" />
            </Array>
            <mxPoint as="offset" />
          </mxGeometry>
        </mxCell>
        <mxCell id="C-W_dXXnNA-3k4iJ4YCx-29" value="myNode" style="edgeLabel;html=1;align=center;verticalAlign=middle;resizable=0;points=[];" parent="C-W_dXXnNA-3k4iJ4YCx-16" connectable="0" vertex="1">
          <mxGeometry x="0.9294" y="-1" relative="1" as="geometry">
            <mxPoint as="offset" />
          </mxGeometry>
        </mxCell>
        <mxCell id="C-W_dXXnNA-3k4iJ4YCx-18" value="" style="endArrow=none;dashed=1;html=1;rounded=0;" parent="1" edge="1">
          <mxGeometry width="50" height="50" relative="1" as="geometry">
            <mxPoint x="568.92" y="1063" as="sourcePoint" />
            <mxPoint x="569" y="970" as="targetPoint" />
          </mxGeometry>
        </mxCell>
        <mxCell id="C-W_dXXnNA-3k4iJ4YCx-17" value="" style="endArrow=block;dashed=1;endFill=0;endSize=12;html=1;rounded=0;entryX=0.552;entryY=0.961;entryDx=0;entryDy=0;entryPerimeter=0;exitX=0.5;exitY=0;exitDx=0;exitDy=0;" parent="1" source="7t5c19qwNGUwCAJm3_xA-13" target="C-W_dXXnNA-3k4iJ4YCx-9" edge="1">
          <mxGeometry width="160" relative="1" as="geometry">
            <mxPoint x="430" y="990" as="sourcePoint" />
            <mxPoint x="590" y="990" as="targetPoint" />
            <Array as="points">
              <mxPoint x="380" y="970" />
              <mxPoint x="873" y="970" />
            </Array>
          </mxGeometry>
        </mxCell>
        <mxCell id="C-W_dXXnNA-3k4iJ4YCx-21" value="" style="endArrow=none;dashed=1;html=1;rounded=0;" parent="1" edge="1">
          <mxGeometry width="50" height="50" relative="1" as="geometry">
            <mxPoint x="1370" y="970" as="sourcePoint" />
            <mxPoint x="870" y="970" as="targetPoint" />
          </mxGeometry>
        </mxCell>
        <mxCell id="C-W_dXXnNA-3k4iJ4YCx-22" value="" style="endArrow=none;dashed=1;html=1;rounded=0;" parent="1" edge="1">
          <mxGeometry width="50" height="50" relative="1" as="geometry">
            <mxPoint x="1240" y="1060" as="sourcePoint" />
            <mxPoint x="1240" y="970" as="targetPoint" />
          </mxGeometry>
        </mxCell>
        <mxCell id="C-W_dXXnNA-3k4iJ4YCx-23" value="" style="endArrow=none;dashed=1;html=1;rounded=0;" parent="1" edge="1">
          <mxGeometry width="50" height="50" relative="1" as="geometry">
            <mxPoint x="969.64" y="1060" as="sourcePoint" />
            <mxPoint x="969.64" y="970" as="targetPoint" />
          </mxGeometry>
        </mxCell>
        <mxCell id="C-W_dXXnNA-3k4iJ4YCx-24" value="" style="endArrow=none;dashed=1;html=1;rounded=0;" parent="1" edge="1">
          <mxGeometry width="50" height="50" relative="1" as="geometry">
            <mxPoint x="1370" y="1060" as="sourcePoint" />
            <mxPoint x="1370" y="970" as="targetPoint" />
          </mxGeometry>
        </mxCell>
        <mxCell id="ohKKbzVVmT6ha2ggcL-i-6" value="" style="endArrow=open;endSize=12;dashed=1;html=1;rounded=0;entryX=1;entryY=0.592;entryDx=0;entryDy=0;entryPerimeter=0;" parent="1" target="7t5c19qwNGUwCAJm3_xA-9" edge="1">
          <mxGeometry width="160" relative="1" as="geometry">
            <mxPoint x="680" y="480" as="sourcePoint" />
            <mxPoint x="810" y="580" as="targetPoint" />
          </mxGeometry>
        </mxCell>
      </root>
    </mxGraphModel>
  </diagram>
</mxfile>
